Coordinates
version=1
nRows=16
nColumns=63
inDegrees=yes

Units are S.I. units (second, meters, Newtons, ...)
If the header above contains a line with 'inDegrees', this indicates whether rotational values are in degrees (yes) or radians (no).

endheader
time	pelvis_tilt	pelvis_list	pelvis_rotation	pelvis_tx	pelvis_ty	pelvis_tz	hip_flexion_r	hip_adduction_r	hip_rotation_r	knee_angle_r	knee_angle_r_beta	ankle_angle_r	subtalar_angle_r	mtp_angle_r	hip_flexion_l	hip_adduction_l	hip_rotation_l	knee_angle_l	knee_angle_l_beta	ankle_angle_l	subtalar_angle_l	mtp_angle_l	L5_S1_Flex_Ext	L5_S1_Lat_Bending	L5_S1_axial_rotation	L4_L5_Flex_Ext	L4_L5_Lat_Bending	L4_L5_axial_rotation	L3_L4_Flex_Ext	L3_L4_Lat_Bending	L3_L4_axial_rotation	L2_L3_Flex_Ext	L2_L3_Lat_Bending	L2_L3_axial_rotation	L1_L2_Flex_Ext	L1_L2_Lat_Bending	L1_L2_axial_rotation	L1_T12_Flex_Ext	L1_T12_Lat_Bending	L1_T12_axial_rotation	Abs_r3	Abs_r2	Abs_r1	Abs_t1	Abs_t2	neck_flexion	neck_bending	neck_rotation	arm_flex_r	arm_add_r	arm_rot_r	elbow_flex_r	pro_sup_r	wrist_flex_r	wrist_dev_r	arm_flex_l	arm_add_l	arm_rot_l	elbow_flex_l	pro_sup_l	wrist_flex_l	wrist_dev_l
5.254237	1.886031	2.747934	86.002882	0.183011	0.698117	0.735775	-6.733181	1.345476	19.252904	0.785239	0.013705	20.911343	-14.395309	0.000000	-3.292163	-1.810248	-10.255645	7.618700	0.132971	32.134510	4.703212	0.000000	0.059168	-0.212540	0.651430	0.109880	-0.282678	0.692144	0.097207	-0.516770	0.692144	0.067623	-0.516770	0.570001	0.054943	-0.433412	0.529287	0.033808	-0.329225	0.488573	0.422629	-2.404297	3.623058	0.000000	0.000000	8.589758	2.199275	-6.053503	27.778471	-32.924671	-23.309026	102.825449	81.753245	-7.718659	18.686287	43.452384	-20.753938	3.194386	95.610349	76.782178	-3.788208	-3.065589
5.271186	1.980501	2.539435	85.638789	0.182778	0.697443	0.736116	-6.430129	1.384902	19.698556	0.876913	0.015305	20.831533	-14.556418	0.000000	-3.488575	-1.796785	-10.527952	6.936326	0.121062	31.778746	4.631350	0.000000	0.072282	-0.193984	0.736941	0.134236	-0.257999	0.783000	0.118753	-0.471653	0.783000	0.082612	-0.471653	0.644824	0.067122	-0.395573	0.598765	0.041302	-0.300482	0.552706	0.516307	-2.194388	4.098647	0.000000	0.000000	9.419914	1.909767	-5.966000	29.153266	-35.514582	-26.934227	102.920202	84.163623	-7.640485	19.579275	44.684801	-22.637776	0.391693	97.574660	78.750235	-5.502108	-4.114026
5.288136	2.044642	2.315137	85.290484	0.182641	0.696771	0.736132	-6.130043	1.402694	20.170504	0.964679	0.016837	20.735395	-14.776783	0.000000	-3.674068	-1.753192	-10.640322	6.256844	0.109203	31.418800	4.419929	0.000000	0.089207	-0.180773	0.813040	0.165666	-0.240428	0.863855	0.146557	-0.439531	0.863855	0.101954	-0.439531	0.711410	0.082837	-0.368632	0.660595	0.050973	-0.280017	0.609780	0.637194	-2.044936	4.521883	0.000000	0.000000	10.367048	1.735348	-5.851953	30.738150	-37.957725	-30.029050	102.595512	85.881978	-7.624231	20.331314	46.153167	-24.383887	-1.669115	99.249059	79.426531	-8.431720	-4.982780
5.305085	2.100966	2.091401	84.964461	0.182540	0.696165	0.735862	-5.845353	1.419601	20.606594	1.054623	0.018407	20.648951	-14.961928	0.000000	-3.851390	-1.700523	-10.605504	5.600973	0.097755	31.076888	4.105228	0.000000	0.107132	-0.168945	0.880370	0.198955	-0.224697	0.935394	0.176008	-0.410772	0.935394	0.122441	-0.410772	0.770324	0.099483	-0.344512	0.715301	0.061215	-0.261696	0.660278	0.765235	-1.911138	4.896356	0.000000	0.000000	11.331811	1.658114	-5.612168	32.536442	-40.283251	-32.468675	101.954714	87.077249	-7.522444	20.896538	47.722550	-25.948372	-3.131063	100.621675	79.370634	-12.225102	-5.743083
5.322034	2.133187	1.860730	84.650578	0.182519	0.695650	0.735357	-5.560737	1.420636	21.019313	1.148649	0.020048	20.561231	-15.133167	0.000000	-4.004491	-1.630179	-10.472245	4.972825	0.086792	30.748998	3.712402	0.000000	0.127565	-0.162510	0.954702	0.236901	-0.216138	1.014371	0.209577	-0.395126	1.014371	0.145794	-0.395126	0.835364	0.118457	-0.331389	0.775695	0.072891	-0.251727	0.716026	0.911186	-1.838340	5.309766	0.000000	0.000000	12.235354	1.706624	-5.400487	34.263400	-42.562231	-34.464889	101.209344	87.853407	-7.138087	21.369041	49.482013	-27.303621	-3.827667	101.534103	79.349881	-17.517677	-7.032832
5.338983	2.160860	1.642434	84.377486	0.182490	0.695265	0.734682	-5.294813	1.423759	21.347800	1.250978	0.021834	20.480571	-15.244456	0.000000	-4.130464	-1.567117	-10.327659	4.409042	0.076952	30.477065	3.382817	0.000000	0.147055	-0.157518	1.034011	0.273095	-0.209499	1.098636	0.241596	-0.382990	1.098636	0.168069	-0.382990	0.904759	0.136555	-0.321211	0.840134	0.084027	-0.243996	0.775508	1.050397	-1.781878	5.750856	0.000000	0.000000	12.999336	1.806308	-5.174425	35.890186	-44.840585	-35.956541	100.549157	88.259978	-6.470622	21.725519	51.253458	-28.558156	-3.595923	101.883022	79.800601	-24.930248	-10.318423
5.355932	2.197045	1.436697	84.183591	0.182378	0.695002	0.733841	-5.052813	1.444360	21.556675	1.359786	0.023733	20.405662	-15.314670	0.000000	-4.216849	-1.528173	-10.134710	3.926562	0.068531	30.268070	3.101734	0.000000	0.165445	-0.151833	1.101284	0.307247	-0.201938	1.170114	0.271809	-0.369166	1.170114	0.189087	-0.369166	0.963624	0.153632	-0.309617	0.894793	0.094535	-0.235189	0.825963	1.181754	-1.717563	6.125012	0.000000	0.000000	13.600320	1.906085	-4.894904	37.466735	-47.060593	-36.845475	100.064663	88.337230	-5.655420	21.822075	52.828057	-29.633563	-3.442926	102.393480	80.847757	-31.278103	-12.190252
5.372881	2.216170	1.230900	84.038607	0.182233	0.694842	0.732842	-4.818097	1.453877	21.662388	1.475193	0.025747	20.356413	-15.325189	0.000000	-4.259662	-1.484391	-9.912993	3.508855	0.061241	30.106829	2.850296	0.000000	0.185635	-0.150051	1.180700	0.344744	-0.199567	1.254494	0.304980	-0.364833	1.254494	0.212163	-0.364833	1.033112	0.172381	-0.305983	0.959319	0.106072	-0.232428	0.885525	1.325975	-1.697402	6.566698	0.000000	0.000000	14.036041	1.986925	-4.767784	38.812361	-49.263640	-37.467332	99.888510	88.108314	-4.526200	21.854235	54.283656	-30.396782	-3.251060	103.068290	82.219858	-36.822830	-12.915630
5.389831	2.239275	1.040127	83.998240	0.181953	0.694765	0.731728	-4.615010	1.475033	21.605273	1.586510	0.027690	20.341158	-15.275179	0.000000	-4.256117	-1.462297	-9.649883	3.181682	0.055531	30.023498	2.661341	0.000000	0.205005	-0.147179	1.246703	0.380714	-0.195748	1.324622	0.336802	-0.357850	1.324622	0.234300	-0.357850	1.090865	0.190367	-0.300127	1.012946	0.117140	-0.227980	0.935027	1.464329	-1.664914	6.933786	0.000000	0.000000	14.345167	2.011257	-4.577606	40.199454	-51.289922	-37.590236	99.892510	87.658448	-3.448334	21.490168	55.624509	-30.905162	-3.238190	103.983378	83.742644	-41.163564	-12.576731
5.406780	2.260972	0.863402	84.028453	0.181586	0.694730	0.730529	-4.441048	1.498420	21.424343	1.689662	0.029490	20.370233	-15.165539	0.000000	-4.216396	-1.452484	-9.379558	2.933365	0.051197	30.012307	2.528163	0.000000	0.223942	-0.144038	1.302115	0.415883	-0.191571	1.383497	0.367915	-0.350214	1.383497	0.255944	-0.350214	1.139351	0.207953	-0.293722	1.057969	0.127961	-0.223115	0.976586	1.599597	-1.629387	7.241973	0.000000	0.000000	14.581252	1.934975	-4.382340	41.720184	-53.036190	-37.257348	99.995856	87.074301	-2.553045	20.754623	56.938023	-31.129294	-3.456114	105.131854	85.310215	-44.234134	-11.311956
5.423729	2.268933	0.708613	84.135539	0.181158	0.694708	0.729285	-4.308955	1.511424	21.128387	1.774712	0.030975	20.439835	-15.008957	0.000000	-4.152362	-1.444134	-9.128259	2.763112	0.048225	30.062534	2.482694	0.000000	0.241554	-0.142888	1.340278	0.448590	-0.190041	1.424045	0.396849	-0.347418	1.424045	0.276072	-0.347418	1.172743	0.224307	-0.291378	1.088976	0.138024	-0.221334	1.005208	1.725395	-1.616380	7.454222	0.000000	0.000000	14.802924	1.818689	-4.151502	43.430227	-54.363422	-36.497670	100.126794	86.765254	-2.206202	19.605341	58.312206	-31.083138	-3.979710	106.444045	86.796866	-45.758791	-9.272204
5.440678	2.236933	0.558243	84.330047	0.180714	0.694648	0.728039	-4.201951	1.491814	20.723318	1.836584	0.032054	20.541797	-14.830821	0.000000	-4.042382	-1.414649	-8.901432	2.681468	0.046800	30.146758	2.526362	0.000000	0.260834	-0.150473	1.360468	0.484394	-0.200130	1.445497	0.428524	-0.365861	1.445497	0.298107	-0.365861	1.190409	0.242210	-0.306845	1.105380	0.149040	-0.233083	1.020351	1.863110	-1.702186	7.566515	0.000000	0.000000	15.036293	1.717134	-4.097378	45.268388	-55.225857	-35.587262	100.265139	86.671901	-1.937994	18.391987	59.823948	-30.761471	-4.697670	107.824631	88.037708	-46.101863	-6.652196
5.457627	2.235971	0.447062	84.589136	0.180129	0.694561	0.726889	-4.153590	1.502160	20.240355	1.878259	0.032782	20.624257	-14.661378	0.000000	-3.930439	-1.425326	-8.720703	2.688116	0.046916	30.272512	2.647003	0.000000	0.275676	-0.153283	1.355434	0.511958	-0.203866	1.440148	0.452908	-0.372691	1.440148	0.315070	-0.372691	1.186004	0.255993	-0.312574	1.101290	0.157521	-0.237435	1.016575	1.969127	-1.733963	7.538515	0.000000	0.000000	15.282354	1.564145	-3.912265	47.354657	-55.649145	-34.345372	100.300362	86.614094	-1.932980	16.902272	61.368265	-30.254039	-5.797972	109.232022	89.026823	-45.079955	-3.385250
5.474576	2.227612	0.365100	84.896739	0.179500	0.694445	0.725895	-4.148115	1.505624	19.728854	1.903774	0.033227	20.674501	-14.540455	0.000000	-3.813045	-1.437677	-8.608203	2.770949	0.048362	30.384344	2.828204	0.000000	0.287211	-0.160136	1.335539	0.533380	-0.212981	1.419010	0.471859	-0.389355	1.419010	0.328253	-0.389355	1.168597	0.266704	-0.326550	1.085125	0.164112	-0.248051	1.001654	2.051519	-1.811494	7.427867	0.000000	0.000000	15.515563	1.455025	-3.851112	49.480391	-55.708513	-33.045475	100.353733	86.619505	-2.000315	15.707239	62.996462	-29.631496	-7.107991	110.507998	89.608591	-42.697446	0.359429
5.491525	2.218283	0.315265	85.246467	0.178826	0.694314	0.725125	-4.182474	1.509265	19.190015	1.921304	0.033533	20.673220	-14.470589	0.000000	-3.697471	-1.456199	-8.560736	2.918699	0.050941	30.469194	3.059955	0.000000	0.293868	-0.170983	1.303771	0.545741	-0.227408	1.385256	0.482795	-0.415729	1.385256	0.335861	-0.415729	1.140799	0.272885	-0.348670	1.059314	0.167916	-0.264853	0.977828	2.099067	-1.934199	7.251181	0.000000	0.000000	15.721352	1.408203	-4.000627	51.508515	-55.471894	-31.807455	100.462817	86.690514	-1.947817	14.996211	64.669651	-29.039682	-8.516603	111.597343	89.651732	-39.099353	4.522022
5.508475	2.199965	0.284024	85.620856	0.178131	0.694176	0.724587	-4.234281	1.505664	18.641251	1.944207	0.033933	20.622728	-14.448527	0.000000	-3.580249	-1.468535	-8.573844	3.108196	0.054248	30.509816	3.313437	0.000000	0.297695	-0.186446	1.264205	0.552849	-0.247974	1.343217	0.489083	-0.453325	1.343217	0.340236	-0.453325	1.106179	0.276440	-0.380201	1.027166	0.170103	-0.288805	0.948153	2.126406	-2.109117	7.031126	0.000000	0.000000	15.881339	1.450244	-4.332546	53.269852	-54.970986	-30.728340	100.678608	86.846518	-1.716699	14.864906	66.291771	-28.597540	-9.959539	112.530631	89.083781	-34.502390	9.124090
